[Header]
FileType HTR
DataType HTRS
FileVersion 1
NumSegments 64
NumFrames 4
DataFrameRate 24
EulerRotationOrder ZYX
CalibrationUnits mm
RotationUnits Degrees
GlobalAxisofGravity Y
BoneLengthAxis Y
ScaleFactor 1.0
[SegmentNames&Hierarchy]
Hips	GLOBAL
Spine	Hips
Spine1	Spine
Spine2	Spine1
Neck	Spine2
Head	Neck
LeftEye	Head
RightEye	Head
LeftShoulder	Spine2
LeftArm	LeftShoulder
LeftForeArm	LeftArm
LeftHand	LeftForeArm
LeftHandThumb1	LeftHand
LeftHandThumb2	LeftHandThumb1
LeftHandThumb3	LeftHandThumb2
LeftHandThumb4	LeftHandThumb3
LeftHandIndex1	LeftHand
LeftHandIndex2	LeftHandIndex1
LeftHandIndex3	LeftHandIndex2
LeftHandIndex4	LeftHandIndex3
LeftHandMiddle1	LeftHand
LeftHandMiddle2	LeftHandMiddle1
LeftHandMiddle3	LeftHandMiddle2
LeftHandMiddle4	LeftHandMiddle3
LeftHandRing1	LeftHand
LeftHandRing2	LeftHandRing1
LeftHandRing3	LeftHandRing2
LeftHandRing4	LeftHandRing3
LeftHandPinky1	LeftHand
LeftHandPinky2	LeftHandPinky1
LeftHandPinky3	LeftHandPinky2
LeftHandPinky4	LeftHandPinky3
RightShoulder	Spine2
RightArm	RightShoulder
RightForeArm	RightArm
RightHand	RightForeArm
RightHandPinky1	RightHand
RightHandPinky2	RightHandPinky1
RightHandPinky3	RightHandPinky2
RightHandPinky4	RightHandPinky3
RightHandRing1	RightHand
RightHandRing2	RightHandRing1
RightHandRing3	RightHandRing2
RightHandRing4	RightHandRing3
RightHandMiddle1	RightHand
RightHandMiddle2	RightHandMiddle1
RightHandMiddle3	RightHandMiddle2
RightHandMiddle4	RightHandMiddle3
RightHandIndex1	RightHand
RightHandIndex2	RightHandIndex1
RightHandIndex3	RightHandIndex2
RightHandIndex4	RightHandIndex3
RightHandThumb1	RightHand
RightHandThumb2	RightHandThumb1
RightHandThumb3	RightHandThumb2
RightHandThumb4	RightHandThumb3
LeftUpLeg	Hips
LeftLeg	LeftUpLeg
LeftFoot	LeftLeg
LeftToeBase	LeftFoot
RightUpLeg	Hips
RightLeg	RightUpLeg
RightFoot	RightLeg
RightToeBase	RightFoot
[BasePosition]
Hips	0	0	0	0	0	0	1
Spine	0	0	0	0	0	0	1
Spine1	0	0	0	0	0	0	1
Spine2	0	0	0	0	0	0	1
Neck	0	0	0	0	0	0	1
Head	0	0	0	0	0	0	1
LeftEye	0	0	0	0	0	0	1
RightEye	0	0	0	0	0	0	1
LeftShoulder	0	0	0	0	0	0	1
LeftArm	0	0	0	0	0	0	1
LeftForeArm	0	0	0	0	0	0	1
LeftHand	0	0	0	0	0	0	1
LeftHandThumb1	0	0	0	0	0	0	1
LeftHandThumb2	0	0	0	0	0	0	1
LeftHandThumb3	0	0	0	0	0	0	1
LeftHandThumb4	0	0	0	0	0	0	1
LeftHandIndex1	0	0	0	0	0	0	1
LeftHandIndex2	0	0	0	0	0	0	1
LeftHandIndex3	0	0	0	0	0	0	1
LeftHandIndex4	0	0	0	0	0	0	1
LeftHandMiddle1	0	0	0	0	0	0	1
LeftHandMiddle2	0	0	0	0	0	0	1
LeftHandMiddle3	0	0	0	0	0	0	1
LeftHandMiddle4	0	0	0	0	0	0	1
LeftHandRing1	0	0	0	0	0	0	1
LeftHandRing2	0	0	0	0	0	0	1
LeftHandRing3	0	0	0	0	0	0	1
LeftHandRing4	0	0	0	0	0	0	1
LeftHandPinky1	0	0	0	0	0	0	1
LeftHandPinky2	0	0	0	0	0	0	1
LeftHandPinky3	0	0	0	0	0	0	1
LeftHandPinky4	0	0	0	0	0	0	1
RightShoulder	0	0	0	0	0	0	1
RightArm	0	0	0	0	0	0	1
RightForeArm	0	0	0	0	0	0	1
RightHand	0	0	0	0	0	0	1
RightHandPinky1	0	0	0	0	0	0	1
RightHandPinky2	0	0	0	0	0	0	1
RightHandPinky3	0	0	0	0	0	0	1
RightHandPinky4	0	0	0	0	0	0	1
RightHandRing1	0	0	0	0	0	0	1
RightHandRing2	0	0	0	0	0	0	1
RightHandRing3	0	0	0	0	0	0	1
RightHandRing4	0	0	0	0	0	0	1
RightHandMiddle1	0	0	0	0	0	0	1
RightHandMiddle2	0	0	0	0	0	0	1
RightHandMiddle3	0	0	0	0	0	0	1
RightHandMiddle4	0	0	0	0	0	0	1
RightHandIndex1	0	0	0	0	0	0	1
RightHandIndex2	0	0	0	0	0	0	1
RightHandIndex3	0	0	0	0	0	0	1
RightHandIndex4	0	0	0	0	0	0	1
RightHandThumb1	0	0	0	0	0	0	1
RightHandThumb2	0	0	0	0	0	0	1
RightHandThumb3	0	0	0	0	0	0	1
RightHandThumb4	0	0	0	0	0	0	1
LeftUpLeg	0	0	0	0	0	0	1
LeftLeg	0	0	0	0	0	0	1
LeftFoot	0	0	0	0	0	0	1
LeftToeBase	0	0	0	0	0	0	1
RightUpLeg	0	0	0	0	0	0	1
RightLeg	0	0	0	0	0	0	1
RightFoot	0	0	0	0	0	0	1
RightToeBase	0	0	0	0	0	0	1
[Hips]
14	-16.01136971	869.1505127	-18.72058105	-8.694219589	0.480401963	2.369388342	1.0
15	-18.11801529	879.2790527	-16.1593647	-9.348581314	1.049258351	2.535628319	1.0
16	-19.75035477	905.5754395	-11.02988052	-9.494272232	1.605217934	2.825429201	1.0
17	-19.8483696	938.9471436	-7.145392895	-8.424988747	2.292700529	3.416548729	1.0
[Spine]
14	9.234152094e-05	101.8158798	1.31520927	11.1349926	0.335262835	3.197984219	1.0
15	9.234152094e-05	101.8158798	1.31520927	10.94268894	0.3133475184	2.582502365	1.0
16	9.234152094e-05	101.8158798	1.31520927	9.875696182	0.4358222783	1.476196289	1.0
17	9.234152094e-05	101.8158798	1.31520927	8.42210865	0.7164015174	0.2314613611	1.0
[Spine1]
14	2.519402869e-06	100.8345108	-10.00804329	-3.593078136	-0.1888680607	2.450786829	1.0
15	2.519402869e-06	100.8345108	-10.00804329	-3.533927917	-0.1908080876	2.433109045	1.0
16	2.519402869e-06	100.8345108	-10.00804329	-3.562592506	-0.1433794945	2.407693148	1.0
17	2.519402869e-06	100.8345108	-10.00804329	-3.699019194	-0.04651047662	2.37631321	1.0
[Spine2]
14	3.4574864e-06	91.00010681	-13.73417091	-3.599637032	-0.8064935207	-0.5115386248	1.0
15	3.4574864e-06	91.00010681	-13.73417091	-3.539518356	-0.805133462	-0.5289818048	1.0
16	3.4574864e-06	91.00010681	-13.73417091	-3.568778515	-0.7592221498	-0.5547465086	1.0
17	3.4574864e-06	91.00010681	-13.73417091	-3.708448887	-0.6696075201	-0.5876328945	1.0
[Neck]
14	6.334285445e-06	166.7166901	-25.16167831	8.419763565	0.07476487756	-0.4830973148	1.0
15	6.334285445e-06	166.7166901	-25.16167831	8.55039978	0.1023464277	-0.4856530726	1.0
16	6.334285445e-06	166.7166901	-25.16167831	8.764482498	0.1395236403	-0.5118549466	1.0
17	6.334285445e-06	166.7166901	-25.16167831	8.939691544	0.1666357219	-0.5704632998	1.0
[Head]
14	-4.242318937e-06	96.17874908	16.85007477	4.844991684	3.093320131	-6.614082336	1.0
15	-4.242318937e-06	96.17874908	16.85007477	5.942968369	3.179531574	-6.169630051	1.0
16	-4.242318937e-06	96.17874908	16.85007477	7.599390507	3.174167156	-5.4356637	1.0
17	-4.242318937e-06	96.17874908	16.85007477	8.414492607	3.029867887	-4.915001869	1.0
[LeftEye]
14	30.67560577	64.09507751	92.83554077	0	0	0	1.0
15	30.67560577	64.09507751	92.83554077	0	0	0	1.0
16	30.67560577	64.09507751	92.83554077	0	0	0	1.0
17	30.67560577	64.09507751	92.83554077	0	0	0	1.0
[RightEye]
14	-30.67550468	64.09500122	92.83547211	0	0	0	1.0
15	-30.67550468	64.09500122	92.83547211	0	0	0	1.0
16	-30.67550468	64.09500122	92.83547211	0	0	0	1.0
17	-30.67550468	64.09500122	92.83547211	0	0	0	1.0
[LeftShoulder]
14	45.70446396	109.4598465	-26.27988052	10.47225475	-11.26309776	16.79652023	1.0
15	45.70446396	109.4598465	-26.27988052	10.0405674	-11.58234692	16.00580215	1.0
16	45.70446396	109.4598465	-26.27988052	9.512050629	-11.88061333	15.0496664	1.0
17	45.70446396	109.4598465	-26.27988052	8.823142052	-11.53371334	15.81264687	1.0
[LeftArm]
14	105.9236984	-5.245829105	-22.32120132	-49.71721268	-1.113015175	22.39838219	1.0
15	105.9236984	-5.245829105	-22.32120132	-48.48677826	-2.642040253	23.58483124	1.0
16	105.9236984	-5.245829105	-22.32120132	-47.80004883	-4.937422752	25.40435982	1.0
17	105.9236984	-5.245829105	-22.32120132	-50.58340454	-8.114506721	27.06533432	1.0
[LeftForeArm]
14	278.4151917	-0.0008942864952	0.0003745891154	-19.04881859	-11.21520901	0.1659291834	1.0
15	278.4151917	-0.0008942864952	0.0003745891154	-17.6622963	-8.591627121	0.06134603918	1.0
16	278.4151917	-0.0008942864952	0.0003745891154	-15.95864391	-4.972534657	0.8005231619	1.0
17	278.4151917	-0.0008942864952	0.0003745891154	-13.65025806	-3.155664444	4.5272789	1.0
[LeftHand]
14	283.2883911	-0.0001744071778	0.0003780452244	-74.30635834	4.403105259	12.36128521	1.0
15	283.2883911	-0.0001744071778	0.0003780452244	-74.22670746	4.505261898	12.15036011	1.0
16	283.2883911	-0.0001744071778	0.0003780452244	-74.1762085	3.812830687	12.18854427	1.0
17	283.2883911	-0.0001744071778	0.0003780452244	-74.40270233	-0.4415483773	13.13930511	1.0
[LeftHandThumb1]
14	24.66140366	-15.7504921	26.82413483	4.604304314	-1.932523966	11.76271629	1.0
15	24.66140366	-15.7504921	26.82413483	4.571492672	-1.90765357	11.74053764	1.0
16	24.66140366	-15.7504921	26.82413483	4.612028122	-1.938314319	11.76793289	1.0
17	24.66140366	-15.7504921	26.82413483	5.053431034	-2.272447109	12.06631851	1.0
[LeftHandThumb2]
14	32.29803848	-18.6469059	18.64681244	19.66608429	24.36965942	16.39506149	1.0
15	32.29803848	-18.6469059	18.64681244	19.6454792	24.3744812	16.38606071	1.0
16	32.29803848	-18.6469059	18.64681244	19.67093277	24.36854553	16.39719772	1.0
17	32.29803848	-18.6469059	18.64681244	19.94805908	24.3037262	16.51834106	1.0
[LeftHandThumb3]
14	26.52565002	-15.31492996	15.31471634	7.900811195	14.17752934	22.37841415	1.0
15	26.52565002	-15.31492996	15.31471634	7.887440205	14.19269085	22.37095642	1.0
16	26.52565002	-15.31492996	15.31471634	7.903923988	14.1739912	22.38015747	1.0
17	26.52565002	-15.31492996	15.31471634	8.083604813	13.97020817	22.48042679	1.0
[LeftHandThumb4]
14	19.54566956	-11.2850008	11.28492165	0	0	0	1.0
15	19.54566956	-11.2850008	11.28492165	0	0	0	1.0
16	19.54566956	-11.2850008	11.28492165	0	0	0	1.0
17	19.54566956	-11.2850008	11.28492165	0	0	0	1.0
[LeftHandIndex1]
14	91.09301758	-5.170834064	22.6007309	-1.059738517	6.968489647	-9.169086456	1.0
15	91.09301758	-5.170834064	22.6007309	-1.057500005	6.969614983	-9.205649376	1.0
16	91.09301758	-5.170834064	22.6007309	-1.060257077	6.968225002	-9.160518646	1.0
17	91.09301758	-5.170834064	22.6007309	-1.090312243	6.953078747	-8.668796539	1.0
[LeftHandIndex2]
14	36.76409531	-6.939138257e-05	0.0002924251603	1.721738815	1.487980962	-12.64101887	1.0
15	36.76409531	-6.939138257e-05	0.0002924251603	1.722108006	1.487164259	-12.63182163	1.0
16	36.76409531	-6.939138257e-05	0.0002924251603	1.721648574	1.488175273	-12.64314938	1.0
17	36.76409531	-6.939138257e-05	0.0002924251603	1.716678023	1.499132276	-12.76638699	1.0
[LeftHandIndex3]
14	28.83062553	0.000385119667	-0.0004276481632	0.7279478908	1.247048497	-11.47585583	1.0
15	28.83062553	0.000385119667	-0.0004276481632	0.7293584347	1.247284889	-11.4772377	1.0
16	28.83062553	0.000385119667	-0.0004276481632	0.7276155949	1.246978521	-11.47552776	1.0
17	28.83062553	0.000385119667	-0.0004276481632	0.7086341977	1.243708253	-11.45685673	1.0
[LeftHandIndex4]
14	23.92720032	0.0003702590766	0.0003355443478	0	0	0	1.0
15	23.92720032	0.0003702590766	0.0003355443478	0	0	0	1.0
16	23.92720032	0.0003702590766	0.0003355443478	0	0	0	1.0
17	23.92720032	0.0003702590766	0.0003355443478	0	0	0	1.0
[LeftHandMiddle1]
14	95.33401489	-0.000339240476	0.0001393702551	0.616522491	3.50617981	-10.07952213	1.0
15	95.33401489	-0.000339240476	0.0001393702551	0.6169609427	3.512018681	-10.11859703	1.0
16	95.33401489	-0.000339240476	0.0001393702551	0.6164414883	3.504798651	-10.07037354	1.0
17	95.33401489	-0.000339240476	0.0001393702551	0.6106948256	3.426205397	-9.544937134	1.0
[LeftHandMiddle2]
14	36.98236847	1.961359158e-05	0.0001791696704	-1.198777437	0.8918818831	-8.933187485	1.0
15	36.98236847	1.961359158e-05	0.0001791696704	-1.209059954	0.8937554359	-8.928970337	1.0
16	36.98236847	1.961359158e-05	0.0001791696704	-1.196385503	0.8914414644	-8.934169769	1.0
17	36.98236847	1.961359158e-05	0.0001791696704	-1.058219314	0.8662483692	-8.99050045	1.0
[LeftHandMiddle3]
14	29.50921631	-0.0003937608562	0.0001644795993	0.05774115399	1.209023118	-11.41048622	1.0
15	29.50921631	-0.0003937608562	0.0001644795993	0.05854558945	1.210871458	-11.42684937	1.0
16	29.50921631	-0.0003937608562	0.0001644795993	0.05754001066	1.20859158	-11.40663052	1.0
17	29.50921631	-0.0003937608562	0.0001644795993	0.0466574952	1.183731914	-11.18635368	1.0
[LeftHandMiddle4]
14	28.3390255	-0.0003893481917	-9.504223272e-05	0	0	0	1.0
15	28.3390255	-0.0003893481917	-9.504223272e-05	0	0	0	1.0
16	28.3390255	-0.0003893481917	-9.504223272e-05	0	0	0	1.0
17	28.3390255	-0.0003893481917	-9.504223272e-05	0	0	0	1.0
[LeftHandRing1]
14	91.04527283	-0.4393950403	-18.65084648	-2.260320663	3.767233133	-9.764184952	1.0
15	91.04527283	-0.4393950403	-18.65084648	-2.26227212	3.775342941	-9.790063858	1.0
16	91.04527283	-0.4393950403	-18.65084648	-2.259839296	3.765331984	-9.758131981	1.0
17	91.04527283	-0.4393950403	-18.65084648	-2.233446121	3.656265497	-9.410081863	1.0
[LeftHandRing2]
14	31.54026794	-6.55346812e-05	0.000104257444	-5.206052303	0.9312948585	-19.83162498	1.0
15	31.54026794	-6.55346812e-05	0.000104257444	-5.213908195	0.9289147258	-19.82534027	1.0
16	31.54026794	-6.55346812e-05	0.000104257444	-5.204201221	0.9318330288	-19.83314514	1.0
17	31.54026794	-6.55346812e-05	0.000104257444	-5.098523617	0.963751018	-19.91755486	1.0
[LeftHandRing3]
14	29.37672424	-0.0004545861739	-6.864757597e-05	-3.082219362	1.033149719	-13.10990143	1.0
15	29.37672424	-0.0004545861739	-6.864757597e-05	-3.090378284	1.032143593	-13.11618614	1.0
16	29.37672424	-0.0004545861739	-6.864757597e-05	-3.080310345	1.033384681	-13.10843563	1.0
17	29.37672424	-0.0004545861739	-6.864757597e-05	-2.970602512	1.046916723	-13.02385807	1.0
[LeftHandRing4]
14	26.47452545	-0.0004980441299	7.070515267e-07	0	0	0	1.0
15	26.47452545	-0.0004980441299	7.070515267e-07	0	0	0	1.0
16	26.47452545	-0.0004980441299	7.070515267e-07	0	0	0	1.0
17	26.47452545	-0.0004980441299	7.070515267e-07	0	0	0	1.0
[LeftHandPinky1]
14	80.77777863	-4.886682034	-38.06066895	-7.460561275	3.737734318	-10.38332748	1.0
15	80.77777863	-4.886682034	-38.06066895	-7.480021477	3.748591661	-10.42355537	1.0
16	80.77777863	-4.886682034	-38.06066895	-7.455965519	3.735240936	-10.37389088	1.0
17	80.77777863	-4.886682034	-38.06066895	-7.194117069	3.589520693	-9.83279705	1.0
[LeftHandPinky2]
14	36.00034332	-2.252215199e-05	-0.0002623879409	0.05736123025	0.7269970775	-13.16155338	1.0
15	36.00034332	-2.252215199e-05	-0.0002623879409	0.07195580006	0.7175318003	-13.1597681	1.0
16	36.00034332	-2.252215199e-05	-0.0002623879409	0.05393448099	0.7292240858	-13.16194248	1.0
17	36.00034332	-2.252215199e-05	-0.0002623879409	-0.1423188299	0.856489718	-13.18543148	1.0
[LeftHandPinky3]
14	21.14211655	0.0001953828178	-2.864415183e-05	-5.244484425	2.022511959	-17.16094589	1.0
15	21.14211655	0.0001953828178	-2.864415183e-05	-5.265897274	2.032444715	-17.15559769	1.0
16	21.14211655	0.0001953828178	-2.864415183e-05	-5.239473343	2.020167112	-17.16217041	1.0
17	21.14211655	0.0001953828178	-2.864415183e-05	-4.951586246	1.886543036	-17.23383141	1.0
[LeftHandPinky4]
14	19.7568264	0.0001240565616	-0.0004430140834	0	0	0	1.0
15	19.7568264	0.0001240565616	-0.0004430140834	0	0	0	1.0
16	19.7568264	0.0001240565616	-0.0004430140834	0	0	0	1.0
17	19.7568264	0.0001240565616	-0.0004430140834	0	0	0	1.0
[RightShoulder]
14	-45.69969559	109.4617615	-26.28017426	12.11588764	9.831183434	-12.15111923	1.0
15	-45.69969559	109.4617615	-26.28017426	12.1226759	10.50001049	-9.887163162	1.0
16	-45.69969559	109.4617615	-26.28017426	12.0012579	11.39050007	-7.167006969	1.0
17	-45.69969559	109.4617615	-26.28017426	11.36524677	12.26587105	-7.628451824	1.0
[RightArm]
14	-105.9284363	-5.247983932	-22.32098579	-51.29454803	6.669953346	-26.34674644	1.0
15	-105.9284363	-5.247983932	-22.32098579	-49.33556366	7.539550781	-26.55115318	1.0
16	-105.9284363	-5.247983932	-22.32098579	-47.39803314	8.518082619	-26.65555573	1.0
17	-105.9284363	-5.247983932	-22.32098579	-47.7571907	7.815232754	-25.91912079	1.0
[RightForeArm]
14	-278.4151917	-0.0003307921579	0.0001167631053	-28.68160439	10.59890175	-6.123169899	1.0
15	-278.4151917	-0.0003307921579	0.0001167631053	-32.02773666	9.378246307	-5.368142128	1.0
16	-278.4151917	-0.0003307921579	0.0001167631053	-36.43743515	7.699991226	-5.180788994	1.0
17	-278.4151917	-0.0003307921579	0.0001167631053	-39.44888687	7.492053032	-6.766496658	1.0
[RightHand]
14	-283.2883911	-1.581417109e-06	0.000558160129	-74.60037231	-3.776190281	-8.308754921	1.0
15	-283.2883911	-1.581417109e-06	0.000558160129	-74.24725342	-5.442898273	-10.63002872	1.0
16	-283.2883911	-1.581417109e-06	0.000558160129	-73.88826752	-6.959429264	-13.80050087	1.0
17	-283.2883911	-1.581417109e-06	0.000558160129	-73.33222198	-4.681569576	-16.59951591	1.0
[RightHandPinky1]
14	-80.76674652	-4.88459301	-38.06010437	-7.422708035	-3.400989294	9.742156029	1.0
15	-80.76674652	-4.88459301	-38.06010437	-7.396184444	-3.38735652	9.686674118	1.0
16	-80.76674652	-4.88459301	-38.06010437	-7.474769592	-3.428135872	9.85149765	1.0
17	-80.76674652	-4.88459301	-38.06010437	-8.078871727	-3.740754366	11.11757469	1.0
[RightHandPinky2]
14	-36.00034332	0.0003967665543	0.0005081442068	0.1014413759	-0.4453076422	13.17188835	1.0
15	-36.00034332	0.0003967665543	0.0005081442068	0.08143854141	-0.4582355618	13.1745491	1.0
16	-36.00034332	0.0003967665543	0.0005081442068	0.1409035772	-0.4198257327	13.16665173	1.0
17	-36.00034332	0.0003967665543	0.0005081442068	0.5975738764	-0.1248020306	13.10602665	1.0
[RightHandPinky3]
14	-21.14211655	0.0001513792522	0.0001479376951	-5.209949493	-1.678148389	17.19335747	1.0
15	-21.14211655	0.0001513792522	0.0001479376951	-5.180561066	-1.664373398	17.20038986	1.0
16	-21.14211655	0.0001513792522	0.0001479376951	-5.267953396	-1.705292225	17.17949104	1.0
17	-21.14211655	0.0001513792522	0.0001479376951	-5.93905592	-2.019606113	17.01898193	1.0
[RightHandPinky4]
14	-19.7568264	-0.000185219571	-9.839841368e-06	0	0	0	1.0
15	-19.7568264	-0.000185219571	-9.839841368e-06	0	0	0	1.0
16	-19.7568264	-0.000185219571	-9.839841368e-06	0	0	0	1.0
17	-19.7568264	-0.000185219571	-9.839841368e-06	0	0	0	1.0
[RightHandRing1]
14	-91.03588104	-0.4391434789	-18.65072441	-2.211405993	-3.439169645	9.111525536	1.0
15	-91.03588104	-0.4391434789	-18.65072441	-2.208845615	-3.428796291	9.075820923	1.0
16	-91.03588104	-0.4391434789	-18.65072441	-2.216329575	-3.459689617	9.181932449	1.0
17	-91.03588104	-0.4391434789	-18.65072441	-2.274092674	-3.696820021	9.996936798	1.0
[RightHandRing2]
14	-31.54026794	0.0002399729856	0.0004885121016	-5.141928673	-0.523920536	19.8405571	1.0
15	-31.54026794	0.0002399729856	0.0004885121016	-5.13109684	-0.5269978046	19.84925079	1.0
16	-31.54026794	0.0002399729856	0.0004885121016	-5.163306713	-0.5178300142	19.82350349	1.0
17	-31.54026794	0.0002399729856	0.0004885121016	-5.410649776	-0.4474650621	19.62559128	1.0
[RightHandRing3]
14	-29.37672424	-0.0004160065437	-0.0003966063377	-3.058071613	-0.7610097528	13.13343334	1.0
15	-29.37672424	-0.0004160065437	-0.0003966063377	-3.046923637	-0.7625709772	13.12484932	1.0
16	-29.37672424	-0.0004160065437	-0.0003966063377	-3.080059528	-0.7579492927	13.15039921	1.0
17	-29.37672424	-0.0004160065437	-0.0003966063377	-3.33454752	-0.7224094868	13.34655094	1.0
[RightHandRing4]
14	-26.47452545	0.0002460821415	-2.294923434e-05	0	0	0	1.0
15	-26.47452545	0.0002460821415	-2.294923434e-05	0	0	0	1.0
16	-26.47452545	0.0002460821415	-2.294923434e-05	0	0	0	1.0
17	-26.47452545	0.0002460821415	-2.294923434e-05	0	0	0	1.0
[RightHandMiddle1]
14	-95.32502747	-0.0001631230261	0.0001679184206	0.6696954966	-3.169746876	9.432606697	1.0
15	-95.32502747	-0.0001631230261	0.0001679184206	0.668925941	-3.162879467	9.378883362	1.0
16	-95.32502747	-0.0001631230261	0.0001679184206	0.671418488	-3.183407068	9.538542747	1.0
17	-95.32502747	-0.0001631230261	0.0001679184206	0.6901077628	-3.340811014	10.76479816	1.0
[RightHandMiddle2]
14	-36.98236847	0.000150669599	-0.0002254552383	-1.193108797	-0.7078444958	8.946123123	1.0
15	-36.98236847	0.000150669599	-0.0002254552383	-1.179000258	-0.705154717	8.951828957	1.0
16	-36.98236847	0.000150669599	-0.0002254552383	-1.220920563	-0.7131373882	8.934924126	1.0
17	-36.98236847	0.000150669599	-0.0002254552383	-1.542907238	-0.7744675875	8.805018425	1.0
[RightHandMiddle3]
14	-29.50921631	-3.113244929e-06	-3.03402544e-06	0.08192582428	-0.9757493734	11.44669056	1.0
15	-29.50921631	-3.113244929e-06	-3.03402544e-06	0.08074612916	-0.9736788869	11.42419243	1.0
16	-29.50921631	-3.113244929e-06	-3.03402544e-06	0.08428592235	-0.9798413515	11.49108505	1.0
17	-29.50921631	-3.113244929e-06	-3.03402544e-06	0.1113975346	-1.027157187	12.00480556	1.0
[RightHandMiddle4]
14	-28.3390255	8.05324089e-05	0.0005378770875	0	0	0	1.0
15	-28.3390255	8.05324089e-05	0.0005378770875	0	0	0	1.0
16	-28.3390255	8.05324089e-05	0.0005378770875	0	0	0	1.0
17	-28.3390255	8.05324089e-05	0.0005378770875	0	0	0	1.0
[RightHandIndex1]
14	-91.08280945	-5.167889595	22.60116386	-1.016327262	-6.645562649	8.590213776	1.0
15	-91.08280945	-5.167889595	22.60116386	-1.019562244	-6.64508152	8.540079117	1.0
16	-91.08280945	-5.167889595	22.60116386	-1.009746909	-6.646593094	8.689060211	1.0
17	-91.08280945	-5.167889595	22.60116386	-0.9348175526	-6.658030033	9.833345413	1.0
[RightHandIndex2]
14	-36.76409531	0.0001922715601	0.0003235567128	1.750722408	-1.22570169	12.66085243	1.0
15	-36.76409531	0.0001922715601	0.0003235567128	1.750268817	-1.226564169	12.67345238	1.0
16	-36.76409531	0.0001922715601	0.0003235567128	1.751575828	-1.223995805	12.63607883	1.0
17	-36.76409531	0.0001922715601	0.0003235567128	1.761714697	-1.204285979	12.34891129	1.0
[RightHandIndex3]
14	-28.83062553	-0.0004960121587	0.0004044897505	0.7528627515	-1.009314895	11.50006866	1.0
15	-28.83062553	-0.0004960121587	0.0004044897505	0.7509182692	-1.009010553	11.49816513	1.0
16	-28.83062553	-0.0004960121587	0.0004044897505	0.7566930652	-1.00988555	11.50383759	1.0
17	-28.83062553	-0.0004960121587	0.0004044897505	0.8010564446	-1.016678214	11.547369	1.0
[RightHandIndex4]
14	-23.92720032	0.0002681470069	0.0002802013478	0	0	0	1.0
15	-23.92720032	0.0002681470069	0.0002802013478	0	0	0	1.0
16	-23.92720032	0.0002681470069	0.0002802013478	0	0	0	1.0
17	-23.92720032	0.0002681470069	0.0002802013478	0	0	0	1.0
[RightHandThumb1]
14	-24.64805984	-15.72714233	26.82626534	3.50781703	3.555755138	-11.06699276	1.0
15	-24.64805984	-15.72714233	26.82626534	3.554144382	3.588056564	-11.09692287	1.0
16	-24.64805984	-15.72714233	26.82626534	3.417168617	3.491076946	-11.00900936	1.0
17	-24.64805984	-15.72714233	26.82626534	2.363589525	2.74838686	-10.33153725	1.0
[RightHandThumb2]
14	-32.29771805	-18.6470871	18.64718437	20.73202133	-26.04990005	-17.63557625	1.0
15	-32.29771805	-18.6470871	18.64718437	20.76078033	-26.04348373	-17.64822769	1.0
16	-32.29771805	-18.6470871	18.64718437	20.67543602	-26.06277275	-17.61099434	1.0
17	-32.29771805	-18.6470871	18.64718437	20.01966858	-26.21045876	-17.32421684	1.0
[RightHandThumb3]
14	-26.52605057	-15.31449318	15.31445599	11.83504009	-19.31707764	-24.80003929	1.0
15	-26.52605057	-15.31449318	15.31445599	11.85320663	-19.29575729	-24.81202698	1.0
16	-26.52605057	-15.31449318	15.31445599	11.79946232	-19.35923386	-24.77674675	1.0
17	-26.52605057	-15.31449318	15.31445599	11.38615894	-19.8465023	-24.50500488	1.0
[RightHandThumb4]
14	-19.54580498	-11.28461742	11.28507042	0	0	0	1.0
15	-19.54580498	-11.28461742	11.28507042	0	0	0	1.0
16	-19.54580498	-11.28461742	11.28507042	0	0	0	1.0
17	-19.54580498	-11.28461742	11.28507042	0	0	0	1.0
[LeftUpLeg]
14	82.07781982	-67.51714325	-15.99555588	-22.85549545	17.17077065	13.42351055	1.0
15	82.07781982	-67.51714325	-15.99555588	-20.95501328	16.58664322	13.56426239	1.0
16	82.07781982	-67.51714325	-15.99555588	-17.57940102	16.6981163	12.78570175	1.0
17	82.07781982	-67.51714325	-15.99555588	-14.37182426	16.10346985	11.15423012	1.0
[LeftLeg]
14	-4.110157988e-06	-443.7047119	2.846426487	66.16819	4.58438158	-6.954897881	1.0
15	-4.110157988e-06	-443.7047119	2.846426487	63.91342545	4.564192772	-7.381742477	1.0
16	-4.110157988e-06	-443.7047119	2.846426487	57.72159576	3.378867149	-7.645574093	1.0
17	-4.110157988e-06	-443.7047119	2.846426487	48.8609581	2.701718807	-7.35287571	1.0
[LeftFoot]
14	4.716393505e-06	-444.278717	-29.82190704	-30.32164574	-1.525118947	-3.373661757	1.0
15	4.716393505e-06	-444.278717	-29.82190704	-29.08708191	-1.069394112	-2.798362255	1.0
16	4.716393505e-06	-444.278717	-29.82190704	-26.56297684	-0.7616496682	-2.030646563	1.0
17	4.716393505e-06	-444.278717	-29.82190704	-22.0531292	-0.3610985875	-2.068519115	1.0
[LeftToeBase]
14	-2.960988058e-05	-87.28669739	107.1055984	-3.001251936	1.618039823e-05	-8.61951321e-07	1.0
15	-2.960988058e-05	-87.28669739	107.1055984	-3.306261539	5.526392215e-06	1.551087053e-06	1.0
16	-2.960988058e-05	-87.28669739	107.1055984	-3.886907578	-5.97502094e-06	3.481478871e-06	1.0
17	-2.960988058e-05	-87.28669739	107.1055984	-4.082973957	2.241168204e-06	-3.101575658e-06	1.0
[RightUpLeg]
14	-82.07795715	-67.51662445	-15.99559402	-34.16792679	-41.03499603	-6.034201145	1.0
15	-82.07795715	-67.51662445	-15.99559402	-31.68725204	-41.60209274	-7.097775936	1.0
16	-82.07795715	-67.51662445	-15.99559402	-27.4764576	-41.90921402	-8.043133736	1.0
17	-82.07795715	-67.51662445	-15.99559402	-23.88368034	-42.6986618	-8.259023666	1.0
[RightLeg]
14	8.435572454e-07	-443.7053833	2.861563921	67.28605652	7.853203773	-7.014361382	1.0
15	8.435572454e-07	-443.7053833	2.861563921	65.33230591	7.68820858	-7.093466282	1.0
16	8.435572454e-07	-443.7053833	2.861563921	59.34768295	7.16939497	-7.436291695	1.0
17	8.435572454e-07	-443.7053833	2.861563921	51.05396652	6.72875309	-7.467487335	1.0
[RightFoot]
14	9.644581951e-06	-444.2773132	-29.83789063	-24.60853958	5.988977909	5.490812778	1.0
15	9.644581951e-06	-444.2773132	-29.83789063	-24.00590706	5.894791603	5.634597301	1.0
16	9.644581951e-06	-444.2773132	-29.83789063	-21.72847176	5.550955772	6.072085857	1.0
17	9.644581951e-06	-444.2773132	-29.83789063	-18.07909203	4.878805637	6.441197872	1.0
[RightToeBase]
14	-2.360438157e-05	-87.28668976	107.1056061	-8.639696171e-05	2.458989184e-05	-0.0001257577678	1.0
15	-2.360438157e-05	-87.28668976	107.1056061	-0.08674103767	7.117924724e-06	-0.000141058088	1.0
16	-2.360438157e-05	-87.28668976	107.1056061	-5.524215157e-05	-8.241623618e-06	-0.0001262617734	1.0
17	-2.360438157e-05	-87.28668976	107.1056061	0.04998470843	3.278038275e-05	4.151031874e-07	1.0
[EndOfFile]
